<mxfile host="Electron" agent="Mozilla/5.0 (Windows NT 10.0; Win64; x64) AppleWebKit/537.36 (KHTML, like Gecko) draw.io/24.7.5 Chrome/126.0.6478.183 Electron/31.3.0 Safari/537.36" version="24.7.5">
  <diagram name="第 1 页" id="Ops2THCcCd-kLin2CIDN">
    <mxGraphModel dx="1004" dy="745" grid="1" gridSize="10" guides="1" tooltips="1" connect="1" arrows="1" fold="1" page="1" pageScale="1" pageWidth="827" pageHeight="1169" math="0" shadow="0">
      <root>
        <mxCell id="0" />
        <mxCell id="1" parent="0" />
        <mxCell id="sr51_ysyHCdWeLn2hyAD-6" style="edgeStyle=orthogonalEdgeStyle;rounded=0;orthogonalLoop=1;jettySize=auto;html=1;exitX=1;exitY=0.5;exitDx=0;exitDy=0;entryX=0;entryY=0.75;entryDx=0;entryDy=0;" edge="1" parent="1" source="sr51_ysyHCdWeLn2hyAD-2" target="sr51_ysyHCdWeLn2hyAD-3">
          <mxGeometry relative="1" as="geometry" />
        </mxCell>
        <mxCell id="sr51_ysyHCdWeLn2hyAD-2" value="&lt;font style=&quot;font-size: 16px;&quot;&gt;点击侧栏菜单&lt;/font&gt;" style="rounded=1;whiteSpace=wrap;html=1;" vertex="1" parent="1">
          <mxGeometry x="200" y="340" width="120" height="60" as="geometry" />
        </mxCell>
        <mxCell id="sr51_ysyHCdWeLn2hyAD-3" value="&lt;font style=&quot;font-size: 16px;&quot;&gt;点击相应宠物大类图标后跳转至该页面&lt;/font&gt;" style="rounded=1;whiteSpace=wrap;html=1;" vertex="1" parent="1">
          <mxGeometry x="414" y="260" width="166" height="60" as="geometry" />
        </mxCell>
        <mxCell id="sr51_ysyHCdWeLn2hyAD-7" style="edgeStyle=orthogonalEdgeStyle;rounded=0;orthogonalLoop=1;jettySize=auto;html=1;exitX=1;exitY=0.5;exitDx=0;exitDy=0;entryX=0;entryY=0.25;entryDx=0;entryDy=0;" edge="1" parent="1" source="sr51_ysyHCdWeLn2hyAD-4" target="sr51_ysyHCdWeLn2hyAD-3">
          <mxGeometry relative="1" as="geometry" />
        </mxCell>
        <mxCell id="sr51_ysyHCdWeLn2hyAD-4" value="&lt;font style=&quot;font-size: 16px;&quot;&gt;点击宠物百科主界面菜单&lt;/font&gt;" style="rounded=1;whiteSpace=wrap;html=1;" vertex="1" parent="1">
          <mxGeometry x="200" y="170" width="120" height="60" as="geometry" />
        </mxCell>
      </root>
    </mxGraphModel>
  </diagram>
</mxfile>
